<svg xmlns="http://www.w3.org/2000/svg" xmlns:xlink="http://www.w3.org/1999/xlink" width="800" zoomAndPan="magnify" viewBox="0 0 600 599.999999" height="800" preserveAspectRatio="xMidYMid meet" version="1.0"><path fill="#ffffff" d="M 375 375.816406 C 374.261719 382.535156 367.285156 386.976562 356.671875 393.726562 C 338.25 405.449219 319.851562 406.691406 312 407.160156 C 287.683594 408.605469 269.789062 401.117188 260.460938 397.085938 C 244.535156 390.203125 236.570312 386.765625 235.261719 380.292969 C 232.085938 364.578125 268.15625 335.957031 305.703125 335.519531 C 341.023438 335.105469 376.789062 359.472656 375 375.816406 Z M 375 375.816406 " fill-opacity="1" fill-rule="nonzero"/><path fill="#ffffff" d="M 404.707031 301.375 C 404.40625 343.230469 378.042969 381.90625 338.394531 396.125 C 298.746094 410.339844 253.046875 397.878906 226.011719 365.058594 C 199.382812 332.742188 196.195312 285.527344 217.625 249.683594 C 239.246094 213.515625 282.605469 194.082031 323.964844 202.589844 C 370.640625 212.183594 404.359375 253.835938 404.695312 301.375 C 404.753906 308.574219 415.9375 308.597656 415.878906 301.375 C 415.546875 254.796875 386.410156 212.699219 342.757812 196.34375 C 299.046875 179.976562 247.777344 193.769531 218.09375 229.769531 C 188.265625 265.957031 183.804688 318.292969 207.960938 358.710938 C 232.007812 398.945312 279.519531 419.964844 325.453125 411.246094 C 377.628906 401.339844 415.5 354.113281 415.878906 301.375 C 415.9375 294.167969 404.753906 294.167969 404.695312 301.375 Z M 404.707031 301.375 " fill-opacity="1" fill-rule="nonzero"/><path fill="#ffffff" d="M 349.523438 274.566406 C 349.523438 276.089844 349.449219 277.609375 349.300781 279.125 C 349.152344 280.640625 348.925781 282.144531 348.628906 283.636719 C 348.332031 285.128906 347.964844 286.605469 347.523438 288.0625 C 347.082031 289.519531 346.570312 290.949219 345.988281 292.359375 C 345.40625 293.765625 344.753906 295.140625 344.039062 296.480469 C 343.320312 297.824219 342.539062 299.128906 341.695312 300.394531 C 340.851562 301.660156 339.945312 302.882812 338.980469 304.058594 C 338.015625 305.234375 336.996094 306.363281 335.917969 307.441406 C 334.84375 308.515625 333.71875 309.539062 332.542969 310.503906 C 331.363281 311.46875 330.144531 312.375 328.878906 313.222656 C 327.613281 314.066406 326.3125 314.847656 324.96875 315.566406 C 323.628906 316.285156 322.253906 316.933594 320.847656 317.515625 C 319.445312 318.101562 318.011719 318.613281 316.558594 319.054688 C 315.101562 319.496094 313.628906 319.867188 312.136719 320.164062 C 310.644531 320.460938 309.140625 320.683594 307.625 320.832031 C 306.113281 320.980469 304.59375 321.054688 303.074219 321.054688 C 301.554688 321.054688 300.035156 320.980469 298.519531 320.832031 C 297.007812 320.683594 295.503906 320.460938 294.011719 320.164062 C 292.519531 319.867188 291.046875 319.496094 289.589844 319.054688 C 288.136719 318.613281 286.703125 318.101562 285.296875 317.515625 C 283.894531 316.933594 282.519531 316.285156 281.179688 315.566406 C 279.835938 314.847656 278.535156 314.066406 277.269531 313.222656 C 276.003906 312.375 274.78125 311.46875 273.605469 310.503906 C 272.429688 309.539062 271.304688 308.515625 270.230469 307.441406 C 269.152344 306.363281 268.132812 305.234375 267.167969 304.058594 C 266.203125 302.882812 265.296875 301.660156 264.453125 300.394531 C 263.609375 299.128906 262.828125 297.824219 262.109375 296.480469 C 261.390625 295.140625 260.742188 293.765625 260.160156 292.359375 C 259.578125 290.949219 259.066406 289.519531 258.625 288.0625 C 258.183594 286.605469 257.8125 285.128906 257.515625 283.636719 C 257.21875 282.144531 256.996094 280.640625 256.847656 279.125 C 256.699219 277.609375 256.625 276.089844 256.625 274.566406 C 256.625 273.042969 256.699219 271.527344 256.847656 270.011719 C 256.996094 268.496094 257.21875 266.992188 257.515625 265.496094 C 257.8125 264.003906 258.183594 262.527344 258.625 261.070312 C 259.066406 259.613281 259.578125 258.183594 260.160156 256.777344 C 260.742188 255.371094 261.390625 253.996094 262.109375 252.652344 C 262.828125 251.308594 263.609375 250.003906 264.453125 248.738281 C 265.296875 247.472656 266.203125 246.25 267.167969 245.074219 C 268.132812 243.898438 269.152344 242.769531 270.230469 241.695312 C 271.304688 240.617188 272.429688 239.597656 273.605469 238.628906 C 274.78125 237.664062 276.003906 236.757812 277.269531 235.914062 C 278.535156 235.066406 279.835938 234.285156 281.179688 233.566406 C 282.519531 232.851562 283.894531 232.199219 285.296875 231.617188 C 286.703125 231.035156 288.136719 230.523438 289.589844 230.082031 C 291.046875 229.636719 292.519531 229.269531 294.011719 228.972656 C 295.503906 228.675781 297.007812 228.453125 298.519531 228.300781 C 300.035156 228.152344 301.554688 228.078125 303.074219 228.078125 C 304.59375 228.078125 306.113281 228.152344 307.625 228.300781 C 309.140625 228.453125 310.644531 228.675781 312.136719 228.972656 C 313.628906 229.269531 315.101562 229.636719 316.558594 230.082031 C 318.011719 230.523438 319.445312 231.035156 320.847656 231.617188 C 322.253906 232.199219 323.628906 232.851562 324.96875 233.566406 C 326.3125 234.285156 327.613281 235.066406 328.878906 235.914062 C 330.144531 236.757812 331.363281 237.664062 332.542969 238.628906 C 333.71875 239.597656 334.84375 240.617188 335.917969 241.695312 C 336.996094 242.769531 338.015625 243.898438 338.980469 245.074219 C 339.945312 246.25 340.851562 247.472656 341.695312 248.738281 C 342.539062 250.003906 343.320312 251.308594 344.039062 252.652344 C 344.753906 253.996094 345.40625 255.371094 345.988281 256.777344 C 346.570312 258.183594 347.082031 259.613281 347.523438 261.070312 C 347.964844 262.527344 348.332031 264.003906 348.628906 265.496094 C 348.925781 266.992188 349.152344 268.496094 349.300781 270.011719 C 349.449219 271.527344 349.523438 273.042969 349.523438 274.566406 Z M 349.523438 274.566406 " fill-opacity="1" fill-rule="nonzero"/></svg>