<svg xmlns="http://www.w3.org/2000/svg" xmlns:xlink="http://www.w3.org/1999/xlink" width="800" zoomAndPan="magnify" viewBox="0 0 600 599.999999" height="800" preserveAspectRatio="xMidYMid meet" version="1.0"><path fill="#ffffff" d="M 300 180 C 233.722656 180 180 233.722656 180 300 C 180 366.277344 233.722656 420 300 420 C 366.277344 420 420 366.277344 420 300 C 420 233.722656 366.277344 180 300 180 Z M 300 410.769531 C 238.921875 410.769531 189.230469 361.078125 189.230469 300 C 189.230469 238.921875 238.921875 189.230469 300 189.230469 C 361.078125 189.230469 410.769531 238.921875 410.769531 300 C 410.769531 361.078125 361.078125 410.769531 300 410.769531 Z M 300 410.769531 " fill-opacity="1" fill-rule="nonzero"/><path fill="#ffffff" d="M 331.902344 236.824219 C 328.210938 233.511719 323.863281 230.863281 318.960938 228.96875 C 307.367188 224.546875 293.648438 225.5625 283.78125 230.09375 C 277.992188 232.746094 273.121094 236.472656 269.296875 241.164062 C 265.578125 245.722656 262.78125 251.078125 260.964844 257.078125 C 259.847656 260.769531 259.191406 265.226562 258.859375 272.308594 L 277.347656 272.308594 C 277.597656 267.601562 278.011719 264.480469 278.640625 262.414062 C 279.746094 258.738281 281.417969 255.527344 283.605469 252.839844 C 285.664062 250.320312 288.238281 248.371094 291.488281 246.867188 C 296.972656 244.367188 305.410156 243.554688 312.339844 246.210938 C 315.128906 247.28125 317.566406 248.742188 319.578125 250.570312 C 321.527344 252.324219 323.050781 254.410156 324.222656 256.957031 C 325.375 259.46875 325.9375 262.191406 325.9375 265.292969 C 325.9375 269.4375 324.996094 273.066406 323.066406 276.398438 C 320.824219 280.292969 317.925781 283.902344 314.558594 287.03125 C 309.65625 291.472656 305.464844 295.503906 302.125 299.003906 L 301.402344 299.742188 C 297.683594 303.5 290.769531 310.46875 290.769531 327.691406 L 290.769531 336.921875 L 309.230469 336.921875 L 309.230469 327.691406 C 309.230469 318.066406 311.917969 315.359375 314.5 312.746094 L 315.460938 311.761719 C 318.574219 308.511719 322.414062 304.808594 327.027344 300.628906 C 331.835938 296.160156 335.871094 291.109375 339.035156 285.636719 C 342.589844 279.507812 344.382812 272.667969 344.382812 265.292969 C 344.382812 259.550781 343.238281 254.160156 340.984375 249.238281 C 338.761719 244.414062 335.703125 240.230469 331.902344 236.824219 Z M 331.902344 236.824219 " fill-opacity="1" fill-rule="nonzero"/><path fill="#ffffff" d="M 290.769531 355.382812 L 309.230469 355.382812 L 309.230469 373.847656 L 290.769531 373.847656 Z M 290.769531 355.382812 " fill-opacity="1" fill-rule="nonzero"/></svg>