<svg xmlns="http://www.w3.org/2000/svg" xmlns:xlink="http://www.w3.org/1999/xlink" width="800" zoomAndPan="magnify" viewBox="0 0 600 599.999999" height="800" preserveAspectRatio="xMidYMid meet" version="1.0"><path fill="#ffffff" d="M 426.273438 295.269531 L 426.273438 323.335938 L 435.246094 323.335938 L 435.246094 304.648438 L 467.917969 304.648438 L 467.917969 323.335938 L 476.886719 323.335938 L 476.886719 295.316406 L 426.273438 295.269531 M 434.246094 286.1875 L 468.761719 286.1875 C 473.554688 285.234375 477.121094 280.988281 478.125 276.886719 L 424.886719 276.886719 C 425.878906 280.992188 429.496094 285.234375 434.246094 286.1875 M 399.085938 323.355469 C 403.613281 321.429688 406.046875 318.101562 406.980469 314.207031 L 366.722656 314.207031 L 366.746094 276.910156 L 357.722656 276.933594 L 357.722656 323.355469 L 399.085938 323.355469 M 290.613281 286.0625 L 322.488281 286.0625 C 327.292969 284.664062 331.328125 280.992188 332.3125 276.921875 L 281.679688 276.921875 L 281.679688 304.355469 L 323.121094 304.355469 L 323.121094 313.980469 L 290.613281 314.007812 C 285.519531 315.429688 281.199219 318.863281 279.042969 323.390625 L 281.679688 323.34375 L 332.027344 323.34375 L 332.027344 295.234375 L 290.613281 295.234375 L 290.613281 286.0625 M 211.925781 286.152344 L 246.429688 286.152344 C 251.226562 285.191406 254.796875 280.953125 255.796875 276.84375 L 202.558594 276.84375 C 203.550781 280.953125 207.171875 285.191406 211.925781 286.152344 M 211.925781 304.496094 L 246.429688 304.496094 C 251.226562 303.546875 254.796875 299.304688 255.796875 295.195312 L 202.558594 295.195312 C 203.550781 299.308594 207.171875 303.546875 211.925781 304.496094 M 211.925781 323.351562 L 246.429688 323.351562 C 251.226562 322.394531 254.796875 318.152344 255.796875 314.046875 L 202.558594 314.046875 C 203.550781 318.152344 207.171875 322.394531 211.925781 323.351562 M 122.164062 276.957031 C 123.203125 281.015625 126.703125 285.160156 131.511719 286.199219 L 146.035156 286.199219 L 146.773438 286.492188 L 146.773438 323.246094 L 155.84375 323.246094 L 155.84375 286.492188 L 156.667969 286.199219 L 171.203125 286.199219 C 176.0625 284.945312 179.488281 281.015625 180.507812 276.957031 L 180.507812 276.867188 L 122.164062 276.867188 L 122.164062 276.957031 " fill-opacity="1" fill-rule="nonzero"/></svg>