<svg xmlns="http://www.w3.org/2000/svg" xmlns:xlink="http://www.w3.org/1999/xlink" width="800" zoomAndPan="magnify" viewBox="0 0 600 599.999999" height="800" preserveAspectRatio="xMidYMid meet" version="1.0"><path fill="#ffffff" d="M 493.871094 296.304688 L 493.871094 341.6875 L 508.390625 341.6875 L 508.390625 311.472656 L 561.230469 311.472656 L 561.230469 341.6875 L 575.738281 341.6875 L 575.738281 296.382812 L 493.871094 296.304688 M 506.773438 281.625 L 562.597656 281.625 C 570.351562 280.078125 576.121094 273.21875 577.746094 266.582031 L 491.628906 266.582031 C 493.238281 273.21875 499.089844 280.078125 506.773438 281.625 M 449.902344 341.714844 C 457.222656 338.605469 461.160156 333.222656 462.667969 326.929688 L 397.550781 326.929688 L 397.589844 266.621094 L 382.992188 266.660156 L 382.992188 341.714844 L 449.902344 341.714844 M 274.445312 281.421875 L 326 281.421875 C 333.773438 279.15625 340.300781 273.21875 341.890625 266.640625 L 259.992188 266.640625 L 259.992188 310.996094 L 327.023438 310.996094 L 327.023438 326.558594 L 274.445312 326.601562 C 266.203125 328.902344 259.214844 334.449219 255.730469 341.777344 L 259.992188 341.699219 L 341.425781 341.699219 L 341.425781 296.246094 L 274.445312 296.246094 L 274.445312 281.421875 M 147.164062 281.5625 L 202.972656 281.5625 C 210.738281 280.011719 216.507812 273.160156 218.125 266.515625 L 132.011719 266.515625 C 133.621094 273.160156 139.476562 280.011719 147.164062 281.5625 M 147.164062 311.226562 L 202.972656 311.226562 C 210.738281 309.691406 216.507812 302.832031 218.125 296.1875 L 132.011719 296.1875 C 133.621094 302.835938 139.476562 309.691406 147.164062 311.226562 M 147.164062 341.707031 L 202.972656 341.707031 C 210.738281 340.160156 216.507812 333.304688 218.125 326.664062 L 132.011719 326.664062 C 133.621094 333.304688 139.476562 340.160156 147.164062 341.707031 M 1.976562 266.699219 C 3.65625 273.257812 9.320312 279.960938 17.09375 281.640625 L 40.585938 281.640625 L 41.78125 282.117188 L 41.78125 341.539062 L 56.453125 341.539062 L 56.453125 282.117188 L 57.785156 281.640625 L 81.296875 281.640625 C 89.15625 279.613281 94.699219 273.257812 96.347656 266.699219 L 96.347656 266.554688 L 1.976562 266.554688 L 1.976562 266.699219 " fill-opacity="1" fill-rule="nonzero"/></svg>