<svg xmlns="http://www.w3.org/2000/svg" xmlns:xlink="http://www.w3.org/1999/xlink" width="800" zoomAndPan="magnify" viewBox="0 0 600 599.999999" height="800" preserveAspectRatio="xMidYMid meet" version="1.0"><defs><clipPath id="c017c604d6"><path d="M 181 180.449219 L 420 180.449219 L 420 419.699219 L 181 419.699219 Z M 181 180.449219 " clip-rule="nonzero"/></clipPath></defs><g clip-path="url(#c017c604d6)"><path fill="#ffffff" d="M 281.417969 418.453125 C 280.503906 418.042969 278.757812 417.683594 277.535156 417.648438 C 274.25 417.5625 253.820312 411.121094 249.910156 408.941406 C 248.054688 407.902344 243.546875 405.421875 239.890625 403.425781 C 230.074219 398.066406 216.703125 386.617188 208.097656 376.210938 C 200.746094 367.316406 189.628906 348.414062 188.367188 342.652344 C 188.058594 341.257812 186.703125 336.703125 185.351562 332.53125 C 181.324219 320.101562 179.992188 301.101562 181.933594 283.789062 C 184.070312 264.722656 193.945312 240.882812 205.335938 227.28125 C 207.441406 224.769531 209.90625 221.78125 210.820312 220.640625 C 212.957031 217.964844 218.546875 212.375 221.21875 210.234375 C 222.359375 209.320312 225.347656 206.863281 227.855469 204.769531 C 230.363281 202.675781 233.722656 200.1875 235.324219 199.234375 C 243.863281 194.152344 254.457031 188.726562 257.746094 187.75 C 280.03125 181.125 284.03125 180.433594 300.105469 180.445312 C 312.175781 180.453125 324.238281 181.722656 329.585938 183.550781 C 331.417969 184.175781 335.714844 185.507812 339.140625 186.511719 C 345.308594 188.320312 353.726562 192.234375 362.226562 197.253906 C 364.644531 198.679688 366.847656 199.847656 367.117188 199.847656 C 367.390625 199.847656 369.898438 201.816406 372.6875 204.226562 C 375.480469 206.632812 379.550781 210.03125 381.730469 211.777344 C 387.042969 216.03125 399.941406 232.097656 403.847656 239.328125 C 405.574219 242.523438 407.929688 246.824219 409.078125 248.882812 C 411.335938 252.917969 416.753906 269.347656 418.1875 276.484375 C 419.761719 284.347656 419.996094 311.933594 418.554688 320.316406 C 413.46875 349.953125 398.320312 375.269531 373.941406 394.875 C 367.867188 399.757812 365.460938 401.265625 352.964844 408.007812 C 346.976562 411.234375 335.230469 415.238281 325.4375 417.382812 C 318.777344 418.839844 284.167969 419.683594 281.417969 418.453125 Z M 319.859375 405.105469 C 330.769531 399.5625 343.019531 386.746094 350.304688 373.257812 C 351.996094 370.128906 353.175781 367.042969 352.929688 366.402344 C 352.324219 364.816406 306 364.65625 304.421875 366.230469 C 303.347656 367.304688 302.921875 407.664062 303.972656 408.71875 C 305.28125 410.027344 314.128906 408.015625 319.855469 405.105469 Z M 293.460938 388.089844 C 293.691406 377.117188 293.558594 367.4375 293.167969 366.578125 C 292.542969 365.207031 291.839844 365.078125 287.4375 365.539062 C 284.679688 365.828125 274.253906 366.0625 264.269531 366.0625 C 246.859375 366.0625 246.121094 366.128906 246.121094 367.675781 C 246.121094 368.566406 246.453125 369.496094 246.859375 369.75 C 247.265625 370 248.621094 372.171875 249.867188 374.574219 C 258.667969 391.558594 278.785156 408.714844 289.3125 408.210938 L 293.046875 408.035156 L 293.464844 388.085938 Z M 349.359375 399.078125 C 351.734375 397.582031 355.484375 395.429688 357.691406 394.300781 C 366.90625 389.578125 389.273438 368.558594 387.734375 366.070312 C 386.945312 364.789062 366.128906 364.976562 365.109375 366.273438 C 364.660156 366.84375 362.335938 371.105469 359.945312 375.742188 C 357.554688 380.382812 352.640625 387.972656 349.03125 392.609375 C 345.421875 397.246094 342.46875 401.210938 342.46875 401.417969 C 342.46875 402.53125 345.535156 401.488281 349.359375 399.078125 Z M 254.320312 397.773438 C 253.695312 396.929688 250.902344 393.230469 248.113281 389.554688 C 245.324219 385.878906 241.449219 379.746094 239.5 375.921875 C 234.210938 365.558594 235.027344 366.0625 223.570312 366.0625 C 215.296875 366.0625 213.730469 366.265625 213.730469 367.332031 C 213.730469 368.96875 228.441406 383.761719 234.835938 388.558594 C 245.511719 396.566406 257.707031 402.332031 254.320312 397.773438 Z M 229.964844 355.195312 C 230.269531 354.703125 229.9375 352.742188 229.222656 350.832031 C 227.117188 345.183594 223.089844 323.074219 222.558594 314.226562 C 222.289062 309.710938 221.640625 305.503906 221.121094 304.875 C 220.386719 303.992188 217.140625 303.734375 206.777344 303.746094 C 199.410156 303.753906 192.832031 304.105469 192.160156 304.53125 C 188.589844 306.789062 194.28125 333.917969 201.140625 347.324219 C 205.746094 356.328125 205.289062 356.089844 218.25 356.089844 C 225.328125 356.089844 229.617188 355.765625 229.964844 355.195312 Z M 293.496094 353.925781 C 293.992188 352.628906 294.230469 342.234375 294.097656 327.953125 L 293.878906 304.148438 L 263.980469 303.949219 C 247.496094 303.835938 233.558594 304.078125 232.917969 304.488281 C 231.945312 305.109375 231.90625 306.9375 232.6875 315.90625 C 234.175781 333.070312 239.058594 353.425781 242.152344 355.390625 C 242.738281 355.761719 254.34375 356.070312 267.945312 356.078125 L 292.675781 356.089844 Z M 358.550781 353.390625 C 363.136719 346.058594 369.605469 306.035156 366.511719 304.125 C 365.292969 303.371094 305.6875 303.636719 304.9375 304.402344 C 304.164062 305.195312 303.050781 350.316406 303.742188 353.0625 L 304.292969 355.261719 L 357.378906 355.261719 L 358.546875 353.390625 Z M 396.171875 353.390625 C 399.53125 349.621094 402.34375 343.496094 405.492188 333.085938 C 409.289062 320.523438 411.496094 304.828125 409.628906 303.644531 C 407.761719 302.460938 380.394531 302.726562 378.78125 303.941406 C 377.710938 304.746094 377.210938 307.378906 376.546875 315.667969 C 375.617188 327.335938 372.863281 343.285156 371.03125 347.601562 C 370.394531 349.101562 369.875 351.4375 369.875 352.796875 L 369.875 355.261719 L 382.1875 355.261719 C 393.910156 355.261719 394.582031 355.171875 396.171875 353.390625 Z M 221.5 292.851562 C 222.046875 292.066406 222.597656 288.679688 222.726562 285.324219 C 223.054688 276.667969 227.429688 252.871094 229.398438 249.035156 C 231 245.917969 229.804688 245.558594 217.8125 245.558594 C 207.429688 245.558594 206.089844 245.726562 204.621094 247.191406 C 202.238281 249.578125 199.199219 255.953125 196.648438 263.917969 C 195.417969 267.761719 193.898438 272.503906 193.277344 274.457031 C 191.523438 279.949219 190.824219 291.765625 192.15625 293.371094 C 193.089844 294.496094 195.273438 294.660156 206.878906 294.480469 C 218.644531 294.300781 220.640625 294.078125 221.5 292.851562 Z M 294.292969 270.492188 C 294.519531 257.921875 294.382812 247.167969 293.984375 246.597656 C 293.429688 245.804688 287.242188 245.5625 267.820312 245.570312 C 253.828125 245.578125 241.984375 245.859375 241.496094 246.195312 C 239.964844 247.246094 237.734375 253.933594 235.6875 263.589844 C 233.554688 273.660156 231.585938 290.652344 232.328125 292.585938 C 232.71875 293.601562 237.375 293.75 263.332031 293.5625 L 293.875 293.347656 Z M 366.363281 292.722656 C 368.449219 290.160156 364.191406 260.917969 360.160156 250.128906 L 358.609375 245.976562 L 304.671875 245.976562 L 304.257812 268.683594 C 304.03125 281.175781 304.140625 291.925781 304.507812 292.578125 C 305.425781 294.21875 365.03125 294.359375 366.363281 292.722656 Z M 409.109375 292.722656 C 410.320312 291.789062 410.351562 290.878906 409.40625 283.789062 C 407.625 270.386719 399.554688 248.429688 395.273438 245.320312 C 393.878906 244.308594 370.847656 245.085938 369.75 246.183594 C 369.046875 246.882812 369.167969 247.882812 370.214844 250.089844 C 370.988281 251.722656 372.160156 256.136719 372.820312 259.902344 C 373.476562 263.667969 374.402344 268.058594 374.875 269.660156 C 375.347656 271.257812 375.96875 276.808594 376.257812 281.988281 C 376.613281 288.414062 377.152344 291.785156 377.953125 292.585938 C 379.550781 294.183594 407.058594 294.300781 409.109375 292.722656 Z M 233 235.378906 C 233.726562 234.808594 236.3125 230.414062 238.75 225.613281 C 241.1875 220.8125 245.921875 213.371094 249.265625 209.078125 C 252.734375 204.621094 255.035156 200.957031 254.621094 200.542969 C 253.671875 199.59375 239.9375 207.511719 233.355469 212.796875 C 223.75 220.511719 211.691406 233.40625 212.386719 235.222656 C 213 236.820312 231 236.957031 233 235.378906 Z M 294.007812 234.648438 C 294.890625 233.914062 295.125 229.289062 295.125 212.644531 L 295.125 191.570312 L 293.046875 191.050781 C 290.316406 190.363281 288.007812 191 280.570312 194.484375 C 272.902344 198.074219 263.535156 206.109375 257.027344 214.675781 C 250.957031 222.664062 244.523438 234.597656 245.847656 235.417969 C 247.457031 236.414062 292.75 235.691406 294.007812 234.648438 Z M 353.609375 234.863281 C 354.289062 233.765625 347.222656 221.164062 342.128906 214.394531 C 335.71875 205.867188 327.472656 198.777344 319.445312 194.878906 C 311.710938 191.125 309.179688 190.351562 306.941406 191.0625 C 305.453125 191.535156 305.316406 192.878906 304.785156 212.429688 C 304.371094 227.632812 304.476562 233.601562 305.171875 234.4375 C 305.941406 235.367188 310.648438 235.585938 329.644531 235.585938 C 342.578125 235.585938 353.363281 235.261719 353.609375 234.863281 Z M 388.496094 234.863281 C 389.132812 233.828125 379.414062 222.699219 373.125 217.269531 C 364.851562 210.125 361.628906 207.8125 355.085938 204.328125 L 346.367188 199.683594 C 344.90625 198.902344 343.441406 198.25 343.117188 198.226562 C 342.148438 198.164062 345.417969 203.164062 350.546875 209.597656 C 353.183594 212.898438 357.582031 219.902344 360.320312 225.152344 C 363.0625 230.40625 365.867188 234.859375 366.550781 235.050781 C 369.023438 235.730469 388.058594 235.570312 388.496094 234.863281 Z M 388.496094 234.863281 " fill-opacity="1" fill-rule="nonzero"/></g></svg>